<?xml version="1.0" encoding="utf-8"?>
<!-- Generator: Adobe Illustrator 22.1.0, SVG Export Plug-In . SVG Version: 6.00 Build 0)  -->
<svg version="1.1" id="Layer_1" xmlns="http://www.w3.org/2000/svg" xmlns:xlink="http://www.w3.org/1999/xlink" x="0px" y="0px"
	 viewBox="0 0 262 191" style="enable-background:new 0 0 262 191;" xml:space="preserve">
<style type="text/css">
	.Drop_x0020_Shadow{fill:none;}
	.Outer_x0020_Glow_x0020_5_x0020_pt{fill:none;}
	.Jive_GS{fill:#A6D0E4;}
	.st0{fill:#FFFFFF;}
	.st1{fill:#3C3A68;}
	.st2{opacity:0.71;fill:#6B6B6B;}
	.st3{fill:#4D4D4D;}
</style>
<g>
	<g>
		<path class="st0" d="M60.3,37.7l-8.4-15.1h161.3l-6.4,11.6c4.8,0.2,3.1,0.1,7.6,0.2l10.2-18.3h-184l12,21.5L60.3,37.7z"/>
		<path class="st0" d="M113.7,133.9l-3-5.5l-7.5-0.1l4.9,8.8C109.1,135,111.5,134.3,113.7,133.9z"/>
		<path class="st0" d="M145.1,145.2l-12.6,22.6l-13.1-23.6c-2.3-0.2-6-0.7-8.2-1.5l21.3,38.1l20-35.7
			C150.2,145.1,147.7,145.2,145.1,145.2z"/>
		<polygon class="st0" points="93.5,108.5 93.7,97.9 91.7,94.3 90.3,94.4 90.4,91.8 79.2,71.7 79.1,85.1 92.4,108.9 		"/>
	</g>
	<g>
		<g>
			<path class="st0" d="M24.4,98.2l-12.1-0.4l-0.2,5c0,0,0,0.1,0,0.1l12.2-1.1L24.4,98.2z"/>
			<path class="st0" d="M36.1,106.5c-0.2,5.8-2.8,7.8-6.9,7.7s-6.6-2.3-6.4-8.2l0.1-2.2l-12.2,1.1c-0.4,13,5.8,20.7,18.4,21.1
				c12.6,0.4,19.4-6.8,19.8-19.8c0.1-1.6,0-3.2-0.2-4.6l-13,1.2C36,103.8,36.1,105.1,36.1,106.5z"/>
			<path class="st0" d="M23,59.5c0-5.8,2.4-8,6.4-8c4.1,0,6.4,2.2,6.4,8.1l0,3.4l12.1,0l0-2.6c0-13.1-6.3-20.6-18.8-20.6
				c-12.5,0-18.9,7.4-19,20.5c-0.1,21.4,21.1,25.9,24.5,39.5l13-1.6C44.6,79.1,22.9,75.2,23,59.5z"/>
			<path class="st0" d="M92.4,49l-0.3-11.7l-28.5,0.8c7.6,3.6,15.4,7.3,23.3,11L92.4,49z"/>
			<polygon class="st0" points="79.4,125.4 79.2,120.5 68.4,125.7 			"/>
			<path class="st0" d="M78,52.9l7.9,0c-7.8-4-15.5-8-22.9-11.8l-11.2-0.1l-0.1,11.7l13.4,0.1l-0.3,43.6l12.8-1.5L78,52.9z"/>
			<polygon class="st0" points="65.1,97.1 64.7,123.5 66.6,123.6 77.7,118.8 78,95.7 			"/>
			<path class="st0" d="M108.8,89.6l0-1.3l4.4,0.2c1.2,0,2.2,0.2,3.1,0.5l15.6-1.4c-1.3-2.3-3.1-4.1-5.7-5.3c2.9-1.2,5-3.2,6.5-5.8
				c-3.5-2-7.1-3.9-10.6-5.9c-0.8,4.9-3.6,6.4-7.8,6.3l-5-0.2l0.5-12.9c-4.2-2.3-8.4-4.7-12.6-7l-1.2,34L108.8,89.6z"/>
			<path class="st0" d="M119.7,89.9c3.3,0.8,5,3.3,5.4,8.2l12.1-5.5c-0.4-1.8-1.1-3.4-1.9-4.8L119.7,89.9z"/>
			<polygon class="st0" points="97.1,124.7 110,125 110.4,106 97.4,111.4 			"/>
			<path class="st0" d="M123.9,101.9l0.1,12.8c0.1,6.6,0.6,7.9,1.3,10l13.1-0.1c-1.3-3-1.5-5.9-1.5-9.9l-0.1-12.6
				c0-2.8-0.3-5.3-0.8-7.5l-12.1,5.5C123.8,100.6,123.9,101.2,123.9,101.9z"/>
			<polygon class="st0" points="99.4,90.9 99,107.9 112,102.5 112.2,89.5 			"/>
			<path class="st0" d="M111.7,48.5l6.2-0.1c4.5-0.1,6.6,2.4,6.7,8.3l0.2,8c0,0.8,0,1.5-0.1,2.1c3.7,1.8,7.3,3.5,10.9,5.3
				c1.4-2.8,2-6.3,1.9-10.6l-0.1-6.4c-0.2-12.6-6.1-18.7-19.4-18.4l-19.4,0.4L99,54.4c4.3,2.1,8.6,4.2,13,6.3L111.7,48.5z"/>
			<path class="st0" d="M153.2,87.7c2.1,4.7,4.1,9.5,6.2,14.2l-0.2-11.2C157.2,89.6,155.2,88.7,153.2,87.7z"/>
			<polygon class="st0" points="143.7,88 143.7,90.1 150.4,87.1 			"/>
			<path class="st0" d="M151.9,88.4l-0.2,0l-6.6,3.2l1.2,34l12.8-0.5l-0.8-22.8C156.3,97.8,154.1,93.1,151.9,88.4
				C151.9,88.4,151.9,88.4,151.9,88.4z"/>
			<path class="st0" d="M151.2,85.2l0.1,0c-2.2-1.2-4.5-2.4-6.7-3.7l-0.1,4.3L151.2,85.2z"/>
			<path class="st0" d="M154.7,86.9C154.7,86.9,154.7,86.9,154.7,86.9c2,1,4,1.9,6,2.9l-0.1-3.8L154.7,86.9z"/>
			<path class="st0" d="M160.1,78.5l-1-41.9l-12.8,0.3l0.7,28c2.4,5.4,4.8,10.9,7.3,16.3L160.1,78.5z"/>
			<path class="st0" d="M154.9,84.9l6-0.7l0-2L154.9,84.9C154.9,84.8,154.9,84.9,154.9,84.9z"/>
			<path class="st0" d="M153.3,85.9l0.2,0c0,0,0,0-0.1,0L153.3,85.9z"/>
			<path class="st0" d="M151.3,83.4c-2.2-5.6-4.4-11.1-6.6-16.6l-0.2,13.1C146.8,81.1,149,82.3,151.3,83.4L151.3,83.4z"/>
			<path class="st0" d="M152.3,85.5L152.3,85.5C152.2,85.6,152.2,85.6,152.3,85.5L152.3,85.5C152.3,85.6,152.3,85.6,152.3,85.5z"/>
			<path class="st0" d="M152.6,85.3C152.6,85.3,152.6,85.3,152.6,85.3C152.6,85.3,152.6,85.3,152.6,85.3L152.6,85.3z"/>
			<path class="st0" d="M167.2,126.6l0.2,0c-0.1-0.1-0.1-0.3-0.2-0.4L167.2,126.6z"/>
			<path class="st0" d="M196.8,125.8l13.2,0.3l-3.6-9.7c-5.1-2.8-10.5-5.7-16-8.7L196.8,125.8z"/>
			<path class="st0" d="M167,83.5l-0.2,9.7c4.3,2.3,8.5,4.6,12.7,6.8l0.1-2.3l4.1-7.4l5.3,14.8c5.6,3,10.9,5.9,16,8.6l-12.1-32.8
				L167,83.5z"/>
			<polygon class="st0" points="195.3,79.8 194.2,76.7 200.2,64.6 184.5,71.4 182.4,75.8 182.4,72.3 169.5,77.9 169.5,82.8 			"/>
			<polygon class="st0" points="214.5,37.8 201.7,37.4 185.9,68.1 201.8,61.7 			"/>
			<polygon class="st0" points="180.8,36.5 168,36.6 168.2,74.3 181,68.6 			"/>
			<path class="st0" d="M167.3,126.1c0.1,0.2,0.1,0.3,0.2,0.5l12.6,0l0-22.8c-4.2-2.1-8.5-4.3-12.8-6.5L167.3,126.1z"/>
			<path class="st0" d="M215.5,125.4l9.3,0.2c-2.9-1.6-6-3.3-9.2-5L215.5,125.4z"/>
			<polygon class="st0" points="233.5,72.7 232.8,49.9 255,49.3 254.7,38.5 220.2,55 220.8,75.3 			"/>
			<polygon class="st0" points="250.5,38.4 215.5,37.8 215.2,54.2 250.5,39.3 			"/>
			<path class="st0" d="M251.7,111.9l-22.2-0.3l0.3-23.9l17.6,0.2l0.1-11.7l-12.1-0.1l-18.3,2.1l-0.5,40.2c3.2,1.7,6.3,3.3,9.3,4.8
				l25.7,0.3L251.7,111.9z"/>
		</g>
		<path class="st0" d="M177,138.6c0,1.8-14.3,3.2-31.9,3.2s-31.9-1.4-31.9-3.2s14.3-3.2,31.9-3.2S177,136.9,177,138.6z"/>
		<g>
			<circle class="st1" cx="144.8" cy="110.7" r="27.9"/>
			<path class="st0" d="M131.4,88.5c16.7-9.8,38.4,1.1,39.2,21.7C168.3,90,148.5,80.1,131.4,88.5z"/>
			<path class="st2" d="M142.3,134.6c-0.2,0-1.8-0.2-0.4-0.1c6,0.6,11.1-0.8,15.7-3.8c-18.9,10.3-39.3-5.2-36.8-24.6
				c-1,5.1-0.2,10.9,2.5,15.9c-3.8-6.6-4.5-15-1.4-22.6c-8.8,17.5,5.7,38.8,26.3,35.9c5.4-0.8,10.2-3.2,14.3-7.4
				C156.3,133.4,149.9,135.3,142.3,134.6z"/>
			<path class="st0" d="M144.6,94.1c0,1.5-1.2,2.8-2.8,2.8c-1.5,0-2.8-1.2-2.8-2.8c0-1.5,1.2-2.8,2.8-2.8
				C143.4,91.3,144.6,92.6,144.6,94.1z"/>
			<path class="st3" d="M141.9,92.6c1.4,0,2.6,1,2.8,2.4c0-0.1,0-0.3,0-0.4c0-1.5-1.2-2.8-2.8-2.8c-1.5,0-2.8,1.2-2.8,2.8
				c0,0.1,0,0.3,0,0.4C139.3,93.6,140.5,92.6,141.9,92.6z"/>
			<path class="st0" d="M156.6,94.1c0,1.5-1.2,2.8-2.8,2.8c-1.5,0-2.8-1.2-2.8-2.8c0-1.5,1.2-2.8,2.8-2.8
				C155.3,91.3,156.6,92.6,156.6,94.1z"/>
			<path class="st3" d="M153.8,92.6c1.4,0,2.6,1,2.8,2.4c0-0.1,0-0.3,0-0.4c0-1.5-1.2-2.8-2.8-2.8c-1.5,0-2.8,1.2-2.8,2.8
				c0,0.1,0,0.3,0,0.4C151.2,93.6,152.4,92.6,153.8,92.6z"/>
			<path class="st0" d="M151.4,105.8c0,2-1.6,3.6-3.6,3.6s-3.6-1.6-3.6-3.6c0-2,1.6-3.6,3.6-3.6S151.4,103.8,151.4,105.8z"/>
			<path class="st3" d="M147.8,103.8c1.8,0,3.3,1.3,3.5,3.1c0-0.2,0-0.3,0-0.5c0-2-1.6-3.6-3.6-3.6s-3.6,1.6-3.6,3.6
				c0,0.2,0,0.4,0,0.5C144.5,105.2,146,103.8,147.8,103.8z"/>
		</g>
	</g>
</g>
</svg>
